<svg width="2500" height="2480" viewBox="0 0 2500 2480" fill="none" xmlns="http://www.w3.org/2000/svg">
<path d="M966.987 1441.38H860.542C860.542 1403.08 829.367 1371.96 791.034 1371.96C752.692 1371.96 721.516 1403.08 721.516 1441.38H615.071C615.071 1344.37 694.021 1265.47 791.034 1265.47C888.037 1265.47 966.987 1344.37 966.987 1441.38ZM1970.38 1441.38H1863.94C1863.94 1403.08 1832.77 1371.96 1794.47 1371.96C1756.13 1371.96 1725.01 1403.08 1725.01 1441.38H1618.51C1618.51 1344.37 1697.46 1265.47 1794.47 1265.47C1891.48 1265.47 1970.38 1344.37 1970.38 1441.38Z" fill="#0D1821"/>
<path d="M2261.41 1076.62V653.226H1328.38V426.619H1465.24V4.76477H1043.39V426.619H1180.25V653.226H247.123V1074.65C106.222 1104.85 0.236206 1230.28 0.236206 1380.07C0.236206 1529.78 106.222 1655.23 247.123 1685.44V2474.96H2261.41V1683.47C2398.02 1650.13 2499.76 1526.75 2499.76 1380.07C2499.76 1233.31 2398.02 1109.96 2261.41 1076.62ZM1191.48 152.852H1317.12V278.492H1191.48V152.852ZM148.372 1380.07C148.372 1312.76 189.048 1254.83 247.123 1229.47V1530.62C189.048 1505.27 148.372 1447.34 148.372 1380.07ZM395.259 1996.51H2113.33V2326.87H395.259V1996.51ZM395.259 801.362H2113.33V1848.38H395.259V801.362ZM2261.41 1526.59V1233.51C2314.89 1260.62 2351.63 1316.11 2351.63 1380.07C2351.63 1444 2314.89 1499.47 2261.41 1526.59Z" fill="#0D1821"/>
</svg>
