<svg width="501" height="501" viewBox="0 0 501 501" fill="none" xmlns="http://www.w3.org/2000/svg">
<path d="M500.367 138.978C500.347 133.951 500.273 128.925 500.145 123.9C499.842 112.953 499.205 101.905 497.256 91.0787C495.398 80.2194 491.93 69.6983 486.966 59.8632C476.91 40.1037 460.852 24.0385 441.096 13.974C431.263 9.01512 420.746 5.55015 409.891 3.69332C399.045 1.74424 387.997 1.09792 377.05 0.805051C372.01 0.663667 366.991 0.603074 361.962 0.572777C355.993 0.54248 350.025 0.54248 344.046 0.54248H156.935C150.956 0.54248 144.998 0.54248 139.03 0.572777C134 0.613172 128.971 0.673766 123.942 0.805051C121.205 0.875743 118.458 0.976731 115.711 1.10802C107.481 1.50187 99.23 2.22899 91.1005 3.69332C82.9945 5.1037 75.0646 7.38582 67.4489 10.5C54.6895 15.7817 43.0945 23.5231 33.3249 33.283C25.5328 41.0704 19.0165 50.037 14.0159 59.8531C8.92607 69.8509 5.70453 80.071 3.73525 91.0686C1.78618 101.905 1.13985 112.953 0.846982 123.89C0.705598 128.939 0.645005 133.958 0.614708 138.978C0.584412 144.956 0.584412 150.925 0.584412 156.893V344.005C0.584412 349.983 0.584412 355.952 0.614708 361.92C0.655104 366.949 0.715697 371.978 0.846982 376.998C1.14995 387.955 1.78618 399.003 3.73525 409.819C5.58916 420.684 9.05421 431.212 14.0159 441.055C24.0736 460.82 40.1401 476.886 59.9051 486.944C69.8929 492.024 80.1129 495.245 91.1106 497.224C101.937 499.173 112.995 499.82 123.942 500.113C128.971 500.244 134 500.305 139.03 500.335C144.988 500.375 150.956 500.365 156.935 500.365H344.046C350.005 500.365 355.983 500.375 361.952 500.335C366.981 500.305 372 500.244 377.029 500.113C387.987 499.81 399.045 499.173 409.871 497.224C420.726 495.368 431.243 491.903 441.076 486.944C460.836 476.883 476.899 460.817 486.955 441.055C492.045 431.057 495.267 420.827 497.246 409.839C499.195 399.013 499.842 387.965 500.134 377.008C500.266 371.989 500.326 366.959 500.357 361.93C500.397 355.962 500.387 349.993 500.387 344.015V156.893C500.387 150.925 500.397 144.956 500.367 138.978Z" fill="#0D1821"/>
<path d="M396.631 309.062L396.601 309.032C397.146 307.144 397.712 305.275 398.207 303.346C418.95 220.697 368.314 122.981 282.645 71.5374C320.193 122.436 336.785 184.079 322.031 237.987C320.718 242.804 319.143 247.419 317.396 251.903C314.955 250.331 312.455 248.852 309.902 247.47C309.902 247.47 224.668 194.854 132.304 101.773C129.88 99.3294 181.556 175.636 240.21 237.603C212.58 222.101 135.566 166.063 86.8185 121.446C92.8072 131.444 99.937 141.058 107.764 150.319C148.472 201.944 201.572 265.647 265.174 314.566C220.487 341.914 157.339 344.035 94.4634 314.597C79.07 307.367 64.4295 298.633 50.7555 288.521C78.8703 333.175 119.824 368.288 168.246 389.257C227.748 414.828 286.907 413.091 330.968 389.682L330.938 389.732C331.14 389.601 331.393 389.47 331.605 389.328C333.412 388.369 335.21 387.369 336.957 386.329C358.134 375.341 399.954 364.192 422.393 407.86C427.897 418.554 439.582 361.91 396.641 309.073L396.631 309.062Z" fill="#344966"/>
</svg>
